<svg width="22" height="22" viewBox="0 0 22 22" fill="none" xmlns="http://www.w3.org/2000/svg">
<path d="M4.31055 21.4414C4.10872 21.2917 3.98503 21.0898 3.93945 20.8359C3.90039 20.582 3.94271 20.2793 4.06641 19.9277L6.10742 13.8535L0.892578 10.1035C0.586589 9.88867 0.375 9.66732 0.257812 9.43945C0.140625 9.21159 0.121094 8.97721 0.199219 8.73633C0.277344 8.50195 0.430339 8.32617 0.658203 8.20898C0.886068 8.0918 1.1888 8.03646 1.56641 8.04297L7.96289 8.08203L9.90625 1.97852C10.0234 1.62044 10.1699 1.35026 10.3457 1.16797C10.528 0.985677 10.7428 0.894531 10.9902 0.894531C11.2441 0.894531 11.459 0.985677 11.6348 1.16797C11.8171 1.35026 11.9668 1.62044 12.084 1.97852L14.0273 8.08203L20.4238 8.04297C20.8014 8.03646 21.1042 8.0918 21.332 8.20898C21.5599 8.32617 21.7129 8.50195 21.791 8.73633C21.8691 8.97721 21.8496 9.21159 21.7324 9.43945C21.6152 9.66732 21.4036 9.88867 21.0977 10.1035L15.8828 13.8535L17.9238 19.9277C18.0475 20.2793 18.0866 20.582 18.041 20.8359C18.002 21.0898 17.8815 21.2917 17.6797 21.4414C17.4779 21.5977 17.25 21.6497 16.9961 21.5977C16.7422 21.5521 16.4655 21.4219 16.166 21.207L10.9902 17.4082L5.82422 21.207C5.52474 21.4219 5.24805 21.5521 4.99414 21.5977C4.74023 21.6497 4.51237 21.5977 4.31055 21.4414Z" fill="#FFD913"/>
</svg>
