<svg width="25" height="22" viewBox="0 0 25 22" fill="none" xmlns="http://www.w3.org/2000/svg">
<path d="M0.389969 10.4609C0.389969 10.1777 0.516922 9.88477 0.780594 9.66992L10.9564 1.125C11.806 0.412109 12.8802 0.412109 13.7298 1.125L18.3587 5.01172V3.30273C18.3587 2.86328 18.6517 2.58984 19.0814 2.58984H20.429C20.8685 2.58984 21.1517 2.86328 21.1517 3.30273V7.36523L23.8958 9.66992C24.1497 9.88477 24.2767 10.1484 24.2767 10.4805C24.2767 11.0469 23.8372 11.4082 23.2611 11.4082C22.9583 11.4082 22.6849 11.2422 22.4505 11.0469L12.7728 2.91211C12.4993 2.67773 12.1868 2.67773 11.9134 2.91211L2.22591 11.0469C1.98177 11.2422 1.70833 11.4082 1.40559 11.4082C0.780594 11.4082 0.389969 10.9688 0.389969 10.4609ZM3.5638 19.2402V11.8184L11.7279 4.97266C12.099 4.65039 12.5579 4.64062 12.9388 4.97266L21.1126 11.8184V19.2402C21.1126 20.6465 20.224 21.4961 18.7786 21.4961H5.89778C4.4427 21.4961 3.5638 20.6465 3.5638 19.2402ZM14.9017 19.6602V13.4102C14.9017 12.9512 14.6087 12.6582 14.1497 12.6582H10.5365C10.0775 12.6582 9.77473 12.9512 9.77473 13.4102V19.6602H14.9017Z" fill="#FFD913"/>
</svg>
