<svg width="22" height="22" viewBox="0 0 22 22" fill="none" xmlns="http://www.w3.org/2000/svg">
<path d="M9.77832 21.3398C9.18262 21.3398 8.74316 20.9883 8.61621 20.4121L8.12793 18.3516C7.7959 18.2344 7.4834 18.1074 7.19043 17.9707L5.39355 19.084C4.90527 19.3867 4.3291 19.3379 3.92871 18.9375L2.67871 17.6777C2.26855 17.2773 2.20996 16.6816 2.53223 16.1934L3.63574 14.4062C3.49902 14.1133 3.37207 13.8008 3.27441 13.498L1.19434 13.0098C0.618164 12.8828 0.276367 12.4434 0.276367 11.8574V10.0996C0.276367 9.52344 0.618164 9.07422 1.19434 8.94727L3.25488 8.44922C3.37207 8.10742 3.49902 7.80469 3.61621 7.54102L2.5127 5.71484C2.2002 5.2168 2.23926 4.66016 2.65918 4.25L3.92871 2.99023C4.34863 2.60938 4.85645 2.55078 5.35449 2.82422L7.18066 3.94727C7.47363 3.80078 7.7959 3.67383 8.12793 3.56641L8.61621 1.48633C8.74316 0.910156 9.18262 0.558594 9.77832 0.558594H11.5654C12.1514 0.558594 12.5908 0.910156 12.7178 1.48633L13.2158 3.57617C13.5479 3.69336 13.8604 3.82031 14.1436 3.95703L15.9795 2.82422C16.4775 2.55078 16.9951 2.61914 17.4053 2.99023L18.6748 4.25C19.0947 4.66016 19.1338 5.2168 18.8213 5.71484L17.7178 7.54102C17.835 7.80469 17.9717 8.10742 18.0791 8.44922L20.1396 8.94727C20.7158 9.07422 21.0576 9.52344 21.0576 10.0996V11.8574C21.0576 12.4434 20.7158 12.8828 20.1396 13.0098L18.0596 13.498C17.9619 13.8008 17.835 14.1133 17.6982 14.4062L18.8018 16.1934C19.124 16.6816 19.0654 17.2773 18.665 17.6777L17.4053 18.9375C17.0049 19.3379 16.4287 19.3867 15.9502 19.084L14.1436 17.9707C13.8506 18.1074 13.5381 18.2344 13.2061 18.3516L12.7178 20.4121C12.5908 20.9883 12.1514 21.3398 11.5654 21.3398H9.77832ZM10.667 14.3672C12.5518 14.3672 14.085 12.8242 14.085 10.9395C14.085 9.07422 12.5518 7.54102 10.667 7.54102C8.79199 7.54102 7.25879 9.07422 7.25879 10.9395C7.25879 12.8242 8.79199 14.3672 10.667 14.3672Z" fill="#FFD913"/>
</svg>
